nColumns=19
nRows=83
DataType=double
version=3
OpenSimVersion=4.1
endheader
time	ground_force_1_vx	ground_force_1_vy	ground_force_1_vz	ground_force_1_px	ground_force_1_py	ground_force_1_pz	ground_force_1_mx	ground_force_1_my	ground_force_1_mz	ground_force_2_vx	ground_force_2_vy	ground_force_2_vz	ground_force_2_px	ground_force_2_py	ground_force_2_pz	ground_force_2_mx	ground_force_2_my	ground_force_2_mz
0	-9.61553	96.5992	10.0782	0.134583	0.006	-0.259114	0	0.243093	0	0	0	0	0.779806	0	-0.254698	0	0	0
0.01	-14.5698	131.416	11.9254	0.138924	0.006	-0.257574	0	0.260661	0	0	0	0	0.779806	0	-0.254698	0	0	0
0.02	-20.5502	171.041	13.6395	0.143225	0.006	-0.256217	0	0.284033	0	0	0	0	0.779806	0	-0.254698	0	0	0
0.03	-27.5397	214.563	15.0409	0.147061	0.006	-0.255137	0	0.314359	0	0	0	0	0.779806	0	-0.254698	0	0	0
0.04	-35.3887	260.669	15.9254	0.150685	0.006	-0.254198	0	0.353394	0	0	0	0	0.779806	0	-0.254698	0	0	0
0.05	-43.7838	307.94	16.1042	0.154237	0.006	-0.253315	0	0.402978	0	0	0	0	0.779806	0	-0.254698	0	0	0
0.06	-52.3439	354.973	15.4534	0.157782	0.006	-0.252444	0	0.464396	0	0	0	0	0.779806	0	-0.254698	0	0	0
0.07	-60.6725	400.449	13.9513	0.161345	0.006	-0.251567	0	0.539877	0	0	0	0	0.779806	0	-0.254698	0	0	0
0.08	-68.3953	443.223	11.6946	0.164924	0.006	-0.250684	0	0.634971	0	0	0	0	0.779806	0	-0.254698	0	0	0
0.09	-75.194	482.378	8.88519	0.168511	0.006	-0.249806	0	0.756559	0	0	0	0	0.779806	0	-0.254698	0	0	0
0.1	-80.8376	517.316	5.76269	0.172103	0.006	-0.248942	0	0.906657	0	0	0	0	0.779806	0	-0.254698	0	0	0
0.11	-85.2215	547.814	2.54172	0.175707	0.006	-0.248096	0	1.0797	0	0	0	0	0.779806	0	-0.254698	0	0	0
0.12	-88.3447	573.935	-0.59782	0.179336	0.006	-0.247267	0	1.26606	0	0	0	0	0.779806	0	-0.254698	0	0	0
0.13	-90.2518	595.867	-3.51573	0.182997	0.006	-0.246455	0	1.45493	0	0	0	0	0.779806	0	-0.254698	0	0	0
0.14	-91.0053	613.811	-6.12627	0.186696	0.006	-0.245653	0	1.63493	0	0	0	0	0.779806	0	-0.254698	0	0	0
0.15	-90.6844	627.94	-8.39627	0.190434	0.006	-0.244854	0	1.7951	0	0	0	0	0.779806	0	-0.254698	0	0	0
0.16	-89.3989	638.39	-10.3268	0.194218	0.006	-0.244046	0	1.92638	0	0	0	0	0.779806	0	-0.254698	0	0	0
0.17	-87.2829	645.282	-11.9375	0.198057	0.006	-0.243219	0	2.02249	0	0	0	0	0.779806	0	-0.254698	0	0	0
0.18	-84.4838	648.763	-13.2511	0.201965	0.006	-0.242364	0	2.08038	0	0	0	0	0.779806	0	-0.254698	0	0	0
0.19	-81.1524	649.064	-14.2772	0.205957	0.006	-0.241474	0	2.09993	0	0	0	0	0.779806	0	-0.254698	0	0	0
0.2	-77.4351	646.521	-15.0089	0.210044	0.006	-0.240549	0	2.08271	0	0	0	0	0.779806	0	-0.254698	0	0	0
0.21	-73.4655	641.555	-15.4301	0.214234	0.006	-0.239592	0	2.03079	0	0	0	0	0.779806	0	-0.254698	0	0	0
0.22	-69.3582	634.627	-15.5306	0.218523	0.006	-0.238609	0	1.94584	0	0	0	0	0.779806	0	-0.254698	0	0	0
0.23	-65.2058	626.193	-15.3204	0.222901	0.006	-0.23761	0	1.82899	0	0	0	0	0.779806	0	-0.254698	0	0	0
0.24	-61.0801	616.676	-14.8392	0.227352	0.006	-0.2366	0	1.68147	0	0	0	0	0.779806	0	-0.254698	0	0	0
0.25	-57.0356	606.455	-14.1551	0.231851	0.006	-0.235588	0	1.50535	0	0	0	0	0.779806	0	-0.254698	0	0	0
0.26	-53.1128	595.875	-13.3522	0.23637	0.006	-0.234576	0	1.30387	0	0	0	0	0.779806	0	-0.254698	0	0	0
0.27	-49.337	585.257	-12.5134	0.240877	0.006	-0.233571	0	1.08122	0	0	0	0	0.779806	0	-0.254698	0	0	0
0.28	-45.7182	574.912	-11.7051	0.245336	0.006	-0.232578	0	0.84187	0	0	0	0	0.779806	0	-0.254698	0	0	0
0.29	-42.2489	565.134	-10.9702	0.249706	0.006	-0.231607	0	0.589936	0	0	0	0	0.779806	0	-0.254698	0	0	0
0.3	-38.9035	556.194	-10.3296	0.253946	0.006	-0.230668	0	0.328763	0	0	0	0	0.779806	0	-0.254698	0	0	0
0.31	-35.6401	548.333	-9.78996	0.258013	0.006	-0.229775	0	0.061014	0	0	0	0	0.779806	0	-0.254698	0	0	0
0.32	-32.4063	541.762	-9.35098	0.261868	0.006	-0.228938	0	-0.211137	0	0	0	0	0.779806	0	-0.254698	0	0	0
0.33	-29.1444	536.669	-9.01173	0.265477	0.006	-0.228166	0	-0.48562	0	0	0	0	0.779806	0	-0.254698	0	0	0
0.34	-25.796	533.224	-8.77276	0.268815	0.006	-0.227465	0	-0.760109	0	0	0	0	0.779806	0	-0.254698	0	0	0
0.35	-22.3034	531.582	-8.63595	0.271865	0.006	-0.226837	0	-1.03168	0	0	0	0	0.779806	0	-0.254698	0	0	0
0.36	-18.6111	531.878	-8.60385	0.274624	0.006	-0.22628	0	-1.29675	0	0	0	0	0.779806	0	-0.254698	0	0	0
0.37	-14.6671	534.21	-8.68	0.277103	0.006	-0.225786	0	-1.55106	0	0	0	0	0.779806	0	-0.254698	0	0	0
0.38	-10.4244	538.626	-8.87085	0.279322	0.006	-0.225346	0	-1.78962	0	0	0	0	0.779806	0	-0.254698	0	0	0
0.39	-5.84206	545.107	-9.18701	0.281316	0.006	-0.224948	0	-2.00684	0	0	0	0	0.779806	0	-0.254698	0	0	0
0.4	-0.886588	553.556	-9.64184	0.283125	0.006	-0.22458	0	-2.1968	0	0	0	0	0.779806	0	-0.254698	0	0	0
0.41	4.46687	563.789	-10.2468	0.284793	0.006	-0.224232	0	-2.35376	0	0	0	0	0.779806	0	-0.254698	0	0	0
0.42	10.2328	575.533	-11.0047	0.286364	0.006	-0.223893	0	-2.47288	0	0	0	0	0.779806	0	-0.254698	0	0	0
0.43	16.4155	588.437	-11.9034	0.287878	0.006	-0.22356	0	-2.5508	0	0	0	0	0.779806	0	-0.254698	0	0	0
0.44	23.0096	602.083	-12.9113	0.289371	0.006	-0.223231	0	-2.58602	0	0	0	0	0.779806	0	-0.254698	0	0	0
0.45	29.9999	615.999	-13.9763	0.290873	0.006	-0.222907	0	-2.57901	0	0	0	0	0.779806	0	-0.254698	0	0	0
0.46	37.3623	629.67	-15.0289	0.292406	0.006	-0.222591	0	-2.53215	0	0	0	0	0.779806	0	-0.254698	0	0	0
0.47	45.0642	642.562	-15.988	0.293985	0.006	-0.222289	0	-2.44931	0	0	0	0	0.779806	0	-0.254698	0	0	0
0.48	53.0631	654.135	-16.7686	0.295619	0.006	-0.222005	0	-2.33535	0	0	0	0	0.779806	0	-0.254698	0	0	0
0.49	61.3019	663.86	-17.2899	0.297312	0.006	-0.221745	0	-2.19577	0	0	0	0	0.779806	0	-0.254698	0	0	0
0.5	69.7038	671.232	-17.4818	0.299062	0.006	-0.22151	0	-2.03627	0	0	0	0	0.779806	0	-0.254698	0	0	0
0.51	78.1665	675.761	-17.2901	0.300866	0.006	-0.221304	0	-1.86244	0	0	0	0	0.779806	0	-0.254698	0	0	0
0.52	86.5562	676.982	-16.6792	0.302717	0.006	-0.221127	0	-1.67962	0	-2.29258	23.5667	-6.02106	0.782232	0.006	-0.256054	0	0.302073	0
0.53	94.7044	674.468	-15.6342	0.30461	0.006	-0.220976	0	-1.49292	0	-5.09202	42.8272	-7.0925	0.812555	0.006	-0.272434	0	0.407555	0
0.54	102.408	667.836	-14.1622	0.30654	0.006	-0.22085	0	-1.30692	0	-8.8129	66.8242	-8.23624	0.827227	0.006	-0.279609	0	0.452252	0
0.55	109.433	656.763	-12.2936	0.308504	0.006	-0.220742	0	-1.1256	0	-13.5681	95.7688	-9.39623	0.836222	0.006	-0.283459	0	0.475905	0
0.56	115.518	640.997	-10.0834	0.3105	0.006	-0.220648	0	-0.95227	0	-19.4413	129.589	-10.4917	0.842588	0.006	-0.285758	0	0.490781	0
0.57	120.39	620.378	-7.61119	0.31253	0.006	-0.220561	0	-0.789595	0	-26.467	167.816	-11.4128	0.847589	0.006	-0.287222	0	0.501795	0
0.58	123.776	594.858	-4.97985	0.3146	0.006	-0.220474	0	-0.639587	0	-34.6032	209.47	-12.016	0.85186	0.006	-0.28819	0	0.511047	0
0.59	125.429	564.537	-2.30997	0.31672	0.006	-0.22038	0	-0.503743	0	-43.646	253.169	-12.1095	0.85576	0.006	-0.288855	0	0.519466	0
0.6	125.157	529.694	0.269509	0.318904	0.006	-0.220274	0	-0.38324	0	-53.2188	297.404	-11.4688	0.859482	0.006	-0.289341	0	0.526603	0
0.61	122.846	490.802	2.63513	0.32117	0.006	-0.22015	0	-0.278979	0	-62.8886	340.7	-9.91817	0.863125	0.006	-0.289721	0	0.530401	0
0.62	118.481	448.526	4.68328	0.323537	0.006	-0.220006	0	-0.191497	0	-72.205	381.788	-7.40053	0.866721	0.006	-0.290033	0	0.524763	0
0.63	112.155	403.706	6.3403	0.326024	0.006	-0.219836	0	-0.120913	0	-80.7328	419.711	-4.00811	0.870269	0.006	-0.29029	0	0.498872	0
0.64	104.078	357.329	7.56588	0.328655	0.006	-0.219639	0	-0.066646	0	-88.0933	453.885	0.0436062	0.873751	0.006	-0.290487	0	0.44199	0
0.65	94.5679	310.492	8.35075	0.331459	0.006	-0.219409	0	-0.027188	0	-94.0291	484.143	4.47628	0.877154	0.006	-0.290612	0	0.349012	0
0.66	84.0301	264.328	8.71174	0.334475	0.006	-0.219141	0	-0.000223	0	-98.4324	510.681	8.99902	0.880467	0.006	-0.290653	0	0.221569	0
0.67	72.9201	219.942	8.68641	0.33777	0.006	-0.218823	0	0.017094	0	-101.303	533.89	13.3445	0.883682	0.006	-0.290595	0	0.066335	0
0.68	61.6964	178.325	8.32936	0.341454	0.006	-0.218438	0	0.027461	0	-102.698	554.179	17.2984	0.88679	0.006	-0.290429	0	-0.106323	0
0.69	50.7794	140.3	7.70936	0.345723	0.006	-0.217953	0	0.032743	0	-102.704	571.883	20.7203	0.889784	0.006	-0.290154	0	-0.283579	0
0.7	40.5265	106.47	6.90473	0.35094	0.006	-0.217311	0	0.033786	0	-101.43	587.213	23.5471	0.892665	0.006	-0.289774	0	-0.452339	0
0.71	31.2172	77.1882	5.99554	0.357811	0.006	-0.216398	0	0.030506	0	-99.0108	600.228	25.7825	0.895441	0.006	-0.289299	0	-0.60108	0
0.72	23.0434	52.5595	5.05479	0.367872	0.006	-0.214968	0	0.021285	0	-95.6064	610.864	27.4795	0.898137	0.006	-0.28874	0	-0.721253	0
0.73	16.101	32.4641	4.14091	0.385143	0.006	-0.212367	0	0.000365	0	-91.4052	619.006	28.7153	0.900785	0.006	-0.288109	0	-0.808182	0
0.74	0	0	0	0.417851	0	-0.208158	0	0	0	-86.6092	624.576	29.563	0.903425	0.006	-0.287415	0	-0.860877	0
0.75	0	0	0	0.450177	0	-0.206137	0	0	0	-81.4182	627.601	30.0702	0.906098	0.006	-0.286659	0	-0.881001	0
0.76	0	0	0	0.482504	0	-0.204115	0	0	0	-76.0128	628.228	30.253	0.90884	0.006	-0.285839	0	-0.87135	0
0.77	0	0	0	0.51483	0	-0.202094	0	0	0	-70.5439	626.706	30.1056	0.911679	0.006	-0.28495	0	-0.834437	0
0.78	0	0	0	0.547157	0	-0.200072	0	0	0	-65.1314	623.352	29.6175	0.914639	0.006	-0.283989	0	-0.77179	0
0.79	0	0	0	0.579483	0	-0.198051	0	0	0	-59.868	618.515	28.7931	0.917738	0.006	-0.282953	0	-0.683879	0
0.8	0	0	0	0.61181	0	-0.196029	0	0	0	-54.8282	612.558	27.6638	0.920988	0.006	-0.281845	0	-0.570998	0
0.81	0	0	0	0.644137	0	-0.194008	0	0	0	-50.075	605.838	26.2876	0.924402	0.006	-0.280671	0	-0.434304	0
0.82	0	0	0	0.676463	0	-0.191986	0	0	0	-45.6614	598.7	24.7396	0.927987	0.006	-0.279442	0	-0.276302	0
